<?xml version="1.0" encoding="UTF-8"?>
<svg version="1.1" xmlns="http://www.w3.org/2000/svg" width="32" height="32">
<path d="M0 0 C0 0.66 0 1.32 0 2 C-2.31 3.32 -4.62 4.64 -7 6 C-3.535 5.505 -3.535 5.505 0 5 C0 9 0 9 -1 12 C-1.99 12.66 -2.98 13.32 -4 14 C-2.68 14 -1.36 14 0 14 C-1.24621935 17.73865806 -2.56795327 18.30455493 -5.8125 20.4375 C-9.26187641 22.71500555 -12.12030952 25.03874966 -15 28 C-16.875 29.0625 -16.875 29.0625 -19 29 C-22.25 26.75 -22.25 26.75 -25 24 C-25 23.01 -25 22.02 -25 21 C-24.01 20.67 -23.02 20.34 -22 20 C-22.99 19.34 -23.98 18.68 -25 18 C-25.1875 14.875 -25.1875 14.875 -25 12 C-24.01 12 -23.02 12 -22 12 C-22 11.34 -22 10.68 -22 10 C-22.99 9.67 -23.98 9.34 -25 9 C-25 8.34 -25 7.68 -25 7 C-22 7 -19 7 -16 7 C-13.73811422 5.72218816 -13.73811422 5.72218816 -11.4375 4.0625 C-7.26064621 1.16133554 -5.15066716 -0.13554387 0 0 Z M-10 7 C-10.33 7.66 -10.66 8.32 -11 9 C-10.01 8.67 -9.02 8.34 -8 8 C-8.66 7.67 -9.32 7.34 -10 7 Z " fill="#F6D373" transform="translate(30,3)"/>
<path d="M0 0 C-1.24621935 3.73865806 -2.56795327 4.30455493 -5.8125 6.4375 C-9.26187641 8.71500555 -12.12030952 11.03874966 -15 14 C-16.875 15.0625 -16.875 15.0625 -19 15 C-22.25 12.75 -22.25 12.75 -25 10 C-25 9.01 -25 8.02 -25 7 C-24.39671875 7.04640625 -23.7934375 7.0928125 -23.171875 7.140625 C-18.01114445 7.51735725 -18.01114445 7.51735725 -13.6875 5.0625 C-13.130625 4.381875 -12.57375 3.70125 -12 3 C-10 2.375 -10 2.375 -8 2 C-7.34 1.649375 -6.68 1.29875 -6 0.9375 C-4 0 -4 0 0 0 Z " fill="#5DA559" transform="translate(30,17)"/>
<path d="M0 0 C0 0.66 0 1.32 0 2 C-1.9765625 3.33203125 -1.9765625 3.33203125 -4.625 4.8125 C-7.80029017 6.63784336 -10.65834419 8.41740673 -13.375 10.875 C-16 13 -16 13 -20 13 C-20.33 12.34 -20.66 11.68 -21 11 C-23.01669827 9.86649466 -23.01669827 9.86649466 -25 9 C-25 8.34 -25 7.68 -25 7 C-22 7 -19 7 -16 7 C-13.73811422 5.72218816 -13.73811422 5.72218816 -11.4375 4.0625 C-7.26064621 1.16133554 -5.15066716 -0.13554387 0 0 Z " fill="#4840FE" transform="translate(30,3)"/>
<path d="M0 0 C-1.34976399 4.04929196 -3.18158422 4.48057842 -6.875 6.5 C-11.07512742 8.73823695 -11.07512742 8.73823695 -14.72265625 11.72265625 C-15.14417969 12.14417969 -15.56570312 12.56570312 -16 13 C-18.5625 12.9375 -18.5625 12.9375 -21 12 C-22.3125 9.9375 -22.3125 9.9375 -23 8 C-21.39125 8.3403125 -21.39125 8.3403125 -19.75 8.6875 C-16.11511612 9.33461215 -16.11511612 9.33461215 -13.6875 7.75 C-11.80762998 5.90455773 -11.80762998 5.90455773 -10 3 C-6.27316799 0.81251165 -4.38504876 0 0 0 Z " fill="#FE5C66" transform="translate(30,12)"/>
<path d="M0 0 C0 0.66 0 1.32 0 2 C-4.97674419 6.97674419 -4.97674419 6.97674419 -8.75 7.0625 C-11 6 -11 6 -12.3125 3.9375 C-12.539375 3.298125 -12.76625 2.65875 -13 2 C-11.39125 2.3403125 -11.39125 2.3403125 -9.75 2.6875 C-6.08039785 3.36878965 -6.08039785 3.36878965 -3.6875 1.5625 C-2 0 -2 0 0 0 Z " fill="#FE1B18" transform="translate(20,18)"/>
<path d="M0 0 C0 0.66 0 1.32 0 2 C-1.6796875 3.32421875 -1.6796875 3.32421875 -3.875 4.6875 C-4.59429688 5.14511719 -5.31359375 5.60273438 -6.0546875 6.07421875 C-7.01761719 6.53248047 -7.01761719 6.53248047 -8 7 C-8.66 6.67 -9.32 6.34 -10 6 C-9.75 4.125 -9.75 4.125 -9 2 C-6.04454879 -0.11103658 -3.56144099 -0.19785783 0 0 Z " fill="#6C7BFE" transform="translate(30,3)"/>
<path d="M0 0 C-1 2 -1 2 -3.06640625 2.8515625 C-4.30197266 3.23441406 -4.30197266 3.23441406 -5.5625 3.625 C-6.38878906 3.88539062 -7.21507812 4.14578125 -8.06640625 4.4140625 C-8.70449219 4.60742188 -9.34257812 4.80078125 -10 5 C-8.234375 1.1640625 -8.234375 1.1640625 -6.125 -0.3125 C-3.64990694 -1.1132654 -2.41712366 -0.86325845 0 0 Z " fill="#FEE45D" transform="translate(30,9)"/>
<path d="M0 0 C0.99 0.33 1.98 0.66 3 1 C0.24735748 4.05849168 -2.00751252 5.87391379 -6 7 C-6.99 6.67 -7.98 6.34 -9 6 C-9 5.34 -9 4.68 -9 4 C-8.2575 4.0825 -7.515 4.165 -6.75 4.25 C-3.21842973 3.92894816 -2.23369636 2.64734383 0 0 Z " fill="#C9A985" transform="translate(18,20)"/>
<path d="M0 0 C2.64 0 5.28 0 8 0 C7.67 1.32 7.34 2.64 7 4 C3 4 3 4 1.25 2.5625 C0 1 0 1 0 0 Z " fill="#FFD71F" transform="translate(8,17)"/>
<path d="M0 0 C-1.33332095 3.99996286 -3.4957827 4.83782337 -7 7 C-7.66 6.67 -8.32 6.34 -9 6 C-7.68 5.01 -6.36 4.02 -5 3 C-5.33 2.34 -5.66 1.68 -6 1 C-4 0 -4 0 0 0 Z " fill="#81CAAF" transform="translate(30,17)"/>
<path d="M0 0 C1.32 0.33 2.64 0.66 4 1 C2.35 2.65 0.7 4.3 -1 6 C-1.99 5.67 -2.98 5.34 -4 5 C-3.67 4.34 -3.34 3.68 -3 3 C-2.34 3 -1.68 3 -1 3 C-0.67 2.01 -0.34 1.02 0 0 Z " fill="#519D49" transform="translate(22,19)"/>
<path d="M0 0 C-0.33 0.99 -0.66 1.98 -1 3 C-2.9375 3.8125 -2.9375 3.8125 -5 4 C-5.66 3.34 -6.32 2.68 -7 2 C-4 0 -4 0 0 0 Z " fill="#FE747F" transform="translate(30,12)"/>
</svg>
